<svg width="1600" height="900" viewBox="0 0 1600 900" fill="none" xmlns="http://www.w3.org/2000/svg">
  <rect width="1600" height="900" fill="#F4E8D7"/>
  <path d="M0 94C214 167 333 183 555 134C800 80 973 6 1242 48C1399 72 1516 117 1600 151V900H0V94Z" fill="#FFF8EE"/>
  <circle cx="1322" cy="162" r="154" fill="#C68036" opacity="0.18"/>
  <circle cx="221" cy="724" r="202" fill="#A84C35" opacity="0.1"/>
  <rect x="82" y="88" width="1436" height="724" rx="42" fill="#FFFDF9" stroke="#D8C8AF" stroke-width="8"/>
  <rect x="140" y="152" width="682" height="92" rx="20" fill="#FFF6E8"/>
  <text x="140" y="196" fill="#7C5E38" font-family="Georgia, 'Times New Roman', serif" font-size="30" font-weight="700" letter-spacing="6">MERCHANT OPERATIONS VIEW</text>
  <text x="140" y="314" fill="#211B16" font-family="Georgia, 'Times New Roman', serif" font-size="86" font-weight="700">Live Checkout</text>
  <text x="140" y="404" fill="#211B16" font-family="Georgia, 'Times New Roman', serif" font-size="86" font-weight="700">Friction Monitor</text>
  <text x="140" y="486" fill="#6F6456" font-family="'Avenir Next', 'Segoe UI', sans-serif" font-size="32">A static Ecwid admin app for store owners who want checkout-readiness insight</text>
  <text x="140" y="532" fill="#6F6456" font-family="'Avenir Next', 'Segoe UI', sans-serif" font-size="32">without paying for a custom backend, database, or Redis stack.</text>
  <rect x="140" y="606" width="266" height="64" rx="32" fill="#A84C35"/>
  <text x="203" y="646" fill="#FFF9F2" font-family="'Avenir Next', 'Segoe UI', sans-serif" font-size="28" font-weight="700">Admin-Only Audit</text>
  <rect x="426" y="606" width="238" height="64" rx="32" fill="#2E6A4C" opacity="0.92"/>
  <text x="488" y="646" fill="#FFF9F2" font-family="'Avenir Next', 'Segoe UI', sans-serif" font-size="28" font-weight="700">Preview Mode</text>
  <rect x="904" y="164" width="534" height="574" rx="30" fill="#FFF9F0" stroke="#DCCCB4" stroke-width="8"/>
  <rect x="952" y="214" width="438" height="118" rx="24" fill="#F8EFE1"/>
  <text x="990" y="262" fill="#7C5E38" font-family="'Avenir Next', 'Segoe UI', sans-serif" font-size="24" font-weight="700" letter-spacing="4">CHECKOUT READINESS</text>
  <text x="990" y="312" fill="#211B16" font-family="Georgia, 'Times New Roman', serif" font-size="70" font-weight="700">75</text>
  <text x="1105" y="312" fill="#6F6456" font-family="'Avenir Next', 'Segoe UI', sans-serif" font-size="30">Stable</text>
  <rect x="952" y="376" width="118" height="238" rx="22" fill="#C68036" opacity="0.22"/>
  <rect x="1110" y="426" width="118" height="188" rx="22" fill="#A84C35" opacity="0.22"/>
  <rect x="1268" y="470" width="118" height="144" rx="22" fill="#2E6A4C" opacity="0.24"/>
  <rect x="952" y="654" width="438" height="40" rx="20" fill="#3C2A1B" opacity="0.08"/>
</svg>