<svg width="1024" height="1024" viewBox="0 0 1024 1024" fill="none" xmlns="http://www.w3.org/2000/svg">
  <rect width="1024" height="1024" rx="220" fill="#F3E7D4"/>
  <rect x="92" y="92" width="840" height="840" rx="180" fill="#FFF9F0" stroke="#D7C1A1" stroke-width="12"/>
  <circle cx="786" cy="238" r="92" fill="#A84C35" opacity="0.12"/>
  <circle cx="242" cy="786" r="132" fill="#C98A41" opacity="0.16"/>
  <rect x="208" y="220" width="608" height="584" rx="72" fill="#FFFDF9" stroke="#D8C9B2" stroke-width="10"/>
  <rect x="272" y="300" width="480" height="32" rx="16" fill="#3C2A1B" opacity="0.12"/>
  <rect x="272" y="360" width="332" height="32" rx="16" fill="#3C2A1B" opacity="0.1"/>
  <rect x="272" y="456" width="132" height="228" rx="28" fill="#B56C1C" opacity="0.18"/>
  <rect x="446" y="404" width="132" height="280" rx="28" fill="#A84C35" opacity="0.24"/>
  <rect x="620" y="520" width="132" height="164" rx="28" fill="#2E6A4C" opacity="0.22"/>
  <path d="M258 726C315 656 376 620 440 620C503 620 554 650 593 710C617 746 643 764 671 764C700 764 728 750 756 720" stroke="#3C2A1B" stroke-width="22" stroke-linecap="round" stroke-linejoin="round"/>
  <circle cx="754" cy="286" r="66" fill="#FFF9F0" stroke="#A84C35" stroke-width="18"/>
  <path d="M725 287L747 309L785 265" stroke="#A84C35" stroke-width="18" stroke-linecap="round" stroke-linejoin="round"/>
</svg>